<?xml version="1.0" encoding="UTF-8"?>
<svg version="1.1" xmlns="http://www.w3.org/2000/svg" width="300" height="65">
<path d="M0 0 C4.62 0 9.24 0 14 0 C14.495 2.97 14.495 2.97 15 6 C20.28 6 25.56 6 31 6 C29.78010471 13.31937173 29.78010471 13.31937173 26 17 C23.70136055 18.23317567 21.4624004 19.10027678 19 20 C23.58962027 33.30355368 29.01927115 43.07676006 40 52 C40.66 52.66 41.32 53.32 42 54 C41.40975852 55.65087847 40.80233994 57.29562407 40.1875 58.9375 C39.85105469 59.85402344 39.51460938 60.77054688 39.16796875 61.71484375 C38 64 38 64 35 65 C21.98915161 59.72065354 14.70422639 46.36669372 9.26953125 34.25390625 C8 31 8 31 8 28 C7.34 28 6.68 28 6 28 C5.81244141 29.06734375 5.81244141 29.06734375 5.62109375 30.15625 C2.82148598 42.97457989 -5.30070435 55.64464555 -16.23828125 63.0546875 C-18.45644834 64.2449235 -20.4864763 64.84290477 -23 65 C-23.70180531 63.5903653 -24.38593958 62.17192359 -25.0625 60.75 C-25.44535156 59.96109375 -25.82820313 59.1721875 -26.22265625 58.359375 C-27.10184764 55.69087451 -27.13409121 54.5530749 -26 52 C-24.515 51.071875 -24.515 51.071875 -23 50.125 C-13.15779871 43.51637614 -8.11852812 29.62741767 -4 19 C-8.29 19 -12.58 19 -17 19 C-15.8 11.8 -15.8 11.8 -12 8 C-8.46381269 6.13884879 -4.93857303 5.54956833 -1 5 C-0.67 3.35 -0.34 1.7 0 0 Z " fill="#5B9BA9" transform="translate(27,0)"/>
<path d="M0 0 C1.65 0 3.3 0 5 0 C5 5.61 5 11.22 5 17 C6.93875 16.731875 8.8775 16.46375 10.875 16.1875 C12.51082031 15.96126953 12.51082031 15.96126953 14.1796875 15.73046875 C17.31238846 15.25334259 17.31238846 15.25334259 19 12 C19.07905064 9.66800612 19.08798769 7.33167378 19 5 C15.37 4.34 11.74 3.68 8 3 C8 2.01 8 1.02 8 0 C13.73711481 -0.34422689 18.06983069 -0.36694489 23 3 C25.14081795 5.60621315 24.99959667 7.02218336 24.9375 10.4375 C23.83884218 14.61239971 22.25271203 16.24770521 19 19 C19.433125 19.75925781 19.86625 20.51851562 20.3125 21.30078125 C20.869375 22.29464844 21.42625 23.28851563 22 24.3125 C22.556875 25.29863281 23.11375 26.28476562 23.6875 27.30078125 C25 30 25 30 25 33 C22.70703125 33.37109375 22.70703125 33.37109375 20 33 C18.26171875 30.41015625 18.26171875 30.41015625 16.6875 27.0625 C14.54837841 22.69109246 14.54837841 22.69109246 10.7734375 19.98046875 C8.34007477 19.66235424 8.34007477 19.66235424 5 20 C5 24.29 5 28.58 5 33 C3.35 33 1.7 33 0 33 C0 28.71 0 24.42 0 20 C-0.66 20 -1.32 20 -2 20 C-2 19.01 -2 18.02 -2 17 C-1.34 17 -0.68 17 0 17 C0 11.39 0 5.78 0 0 Z " fill="#FFFFFF" transform="translate(125,16)"/>
<path d="M0 0 C-1.1446875 0.804375 -1.1446875 0.804375 -2.3125 1.625 C-6.12385273 4.99317218 -7.79212866 7.66469544 -8.25 12.80859375 C-8.36536656 18.58413227 -7.97542967 23.56756841 -6 29 C-1.59612314 30.36030863 1.825743 31.2826915 6.375 30.1875 C10.1891046 27.0090795 11.25905272 23.85247829 12 19 C12.04602396 13.38507644 11.5712177 8.06345602 9 3 C5.97017694 1.62810173 5.97017694 1.62810173 3 1 C3 0.67 3 0.34 3 0 C9.16857998 0.3701148 11.75775103 1.75775103 16 6 C19.10106396 10.88973225 18.56991159 16.4250956 18 22 C16.75539646 26.43488476 14.26808994 29.15573255 10.3125 31.4375 C4.6701113 33.87518003 -0.48388254 33.87096373 -6.25 31.875 C-10.4296989 29.0252053 -13.36864324 25.89407029 -15 21 C-15.77695145 14.54238714 -14.88885084 9.30080283 -11 4 C-7.32655657 0.87366517 -4.85526906 -0.57120812 0 0 Z " fill="#FFFFFF" transform="translate(282,16)"/>
<path d="M0 0 C0.53625 0.2475 1.0725 0.495 1.625 0.75 C0.84125 1.3275 0.0575 1.905 -0.75 2.5 C-4.28922082 5.53361784 -5.24322451 7.32956287 -5.67578125 11.9921875 C-5.67964844 13.19101562 -5.68351563 14.38984375 -5.6875 15.625 C-5.70425781 16.81867187 -5.72101563 18.01234375 -5.73828125 19.2421875 C-5.34099723 23.07832781 -4.38138435 25.47693444 -2.375 28.75 C1.70018173 31.35358833 5.01626283 30.65367395 9.625 29.75 C9.955 25.46 10.285 21.17 10.625 16.75 C9.635 16.75 8.645 16.75 7.625 16.75 C7.625 15.76 7.625 14.77 7.625 13.75 C10.265 13.75 12.905 13.75 15.625 13.75 C15.625 20.02 15.625 26.29 15.625 32.75 C-3.1285954 33.37511985 -3.1285954 33.37511985 -8.375 28.75 C-12.63165763 23.64201084 -13.00389072 19.12888213 -12.7578125 12.55859375 C-12.01810501 7.13155617 -9.49110026 4.65683147 -5.375 1.3125 C-2.375 -0.25 -2.375 -0.25 0 0 Z " fill="#FFFFFF" transform="translate(181.375,16.25)"/>
<path d="M0 0 C4.1117256 -0.02465746 8.22342278 -0.04283959 12.33520508 -0.05493164 C13.73495228 -0.0599708 15.1346942 -0.06680216 16.53442383 -0.07543945 C18.54245777 -0.0875232 20.55052957 -0.09269807 22.55859375 -0.09765625 C24.37315063 -0.10551147 24.37315063 -0.10551147 26.22436523 -0.11352539 C29 0 29 0 30 1 C30.07179964 2.51928038 30.08392007 4.04167482 30.0625 5.5625 C30.05347656 6.38878906 30.04445313 7.21507812 30.03515625 8.06640625 C30.02355469 8.70449219 30.01195312 9.34257812 30 10 C29.34 10 28.68 10 28 10 C27.7525 9.38125 27.505 8.7625 27.25 8.125 C25.74244918 5.5621636 24.79082862 4.95685553 22 4 C19.33290931 3.83249586 19.33290931 3.83249586 17 4 C17.33 4.33 17.66 4.66 18 5 C18.08767112 7.07262076 18.10695873 9.14820294 18.09765625 11.22265625 C18.09443359 12.48271484 18.09121094 13.74277344 18.08789062 15.04101562 C18.07953403 16.38151109 18.07106907 17.72200588 18.0625 19.0625 C18.0574866 20.40689942 18.05292342 21.7513006 18.04882812 23.09570312 C18.03699488 26.39717941 18.02050971 29.69856803 18 33 C16.35 33 14.7 33 13 33 C13 23.1 13 13.2 13 3 C5.03889498 4.83350368 5.03889498 4.83350368 0 10 C0 6.7 0 3.4 0 0 Z " fill="#FFFFFF" transform="translate(233,16)"/>
<path d="M0 0 C1.65 0 3.3 0 5 0 C5.81832722 1.89332534 6.62942268 3.78977733 7.4375 5.6875 C8.11619141 7.27111328 8.11619141 7.27111328 8.80859375 8.88671875 C9.85447455 11.61972529 10.53520748 14.12042337 11 17 C11.99 17 12.98 17 14 17 C14.12375 18.216875 14.2475 19.43375 14.375 20.6875 C14.78890199 24.08269607 15.64875842 26.84710298 17 30 C17 30.99 17 31.98 17 33 C15.35 33 13.7 33 12 33 C9.525 27.06 9.525 27.06 7 21 C0.07 20.505 0.07 20.505 -7 20 C-7 19.01 -7 18.02 -7 17 C-3.04 16.67 0.92 16.34 5 16 C4.2575 14.1128125 4.2575 14.1128125 3.5 12.1875 C2.43891831 9.49058403 2 7.95274099 2 5 C1.34 5 0.68 5 0 5 C-0.144375 5.78375 -0.28875 6.5675 -0.4375 7.375 C-1 10 -1 10 -2 12 C-2.66 12 -3.32 12 -4 12 C-3.33501617 7.61110675 -1.81242323 4.0188515 0 0 Z " fill="#FFFFFF" transform="translate(216,16)"/>
<path d="M0 0 C1.98 0 3.96 0 6 0 C6.40992187 1.14339844 6.81984375 2.28679688 7.2421875 3.46484375 C7.78608252 4.95586631 8.33037389 6.44674433 8.875 7.9375 C9.14441406 8.69224609 9.41382812 9.44699219 9.69140625 10.22460938 C10.91619414 14.35097092 10.91619414 14.35097092 14 17 C14.35820185 18.99569601 14.68377223 20.99722415 15 23 C15.9300913 26.35532937 16.95626899 29.67844095 18 33 C16.02 33 14.04 33 12 33 C11.32942113 31.2097939 10.6636531 29.41778511 10 27.625 C9.62875 26.62726562 9.2575 25.62953125 8.875 24.6015625 C8 22 8 22 8 20 C3.38 20 -1.24 20 -6 20 C-6 19.01 -6 18.02 -6 17 C-2.04 17 1.92 17 6 17 C5.360625 15.370625 4.72125 13.74125 4.0625 12.0625 C3.70285156 11.14597656 3.34320313 10.22945312 2.97265625 9.28515625 C2.2003782 7.07581467 2.2003782 7.07581467 1 6 C0.34 7.98 -0.32 9.96 -1 12 C-1.99 11.67 -2.98 11.34 -4 11 C-2.68 7.37 -1.36 3.74 0 0 Z " fill="#FFFFFF" transform="translate(100,16)"/>
<path d="M0 0 C1.65 0 3.3 0 5 0 C5 10.89 5 21.78 5 33 C3.35 33 1.7 33 0 33 C0 22.11 0 11.22 0 0 Z " fill="#FFFFFF" transform="translate(157,16)"/>
<path d="M0 0 C3.96 0 7.92 0 12 0 C12 3.96 12 7.92 12 12 C8.04 12 4.08 12 0 12 C0 8.04 0 4.08 0 0 Z " fill="#508DA4" transform="translate(28,43)"/>
<path d="M0 0 C0.33 0 0.66 0 1 0 C1.28875 1.134375 1.5775 2.26875 1.875 3.4375 C2.24625 4.613125 2.6175 5.78875 3 7 C3.66 7.33 4.32 7.66 5 8 C5 8.66 5 9.32 5 10 C1.04 10 -2.92 10 -7 10 C-1.125 1.125 -1.125 1.125 0 0 Z " fill="#FFFFFF" transform="translate(208,39)"/>
<path d="M0 0 C0.66 0 1.32 0 2 0 C2.103125 1.093125 2.20625 2.18625 2.3125 3.3125 C2.68753577 7.25306412 2.68753577 7.25306412 6 10 C2.04 10 -1.92 10 -6 10 C-6 9.34 -6 8.68 -6 8 C-4.33333333 6.33333333 -2.66666667 4.66666667 -1 3 C-0.67 2.01 -0.34 1.02 0 0 Z " fill="#FFFFFF" transform="translate(92,39)"/>
<path d="M0 0 C3.63 0 7.26 0 11 0 C11 3.63 11 7.26 11 11 C9 10 9 10 7.75 7.125 C5.66668742 3.40479896 3.88942339 2.55576936 0 1 C0 0.67 0 0.34 0 0 Z " fill="#FFFFFF" transform="translate(186,16)"/>
</svg>
